<svg height="496pt" viewBox="-64 0 496 496" width="496pt" xmlns="http://www.w3.org/2000/svg"><path d="m328 456v32h-320v-432h32v400zm0 0" fill="#ff826e"/><path d="m336 24-2.558594-.398438-5.441406 32.398438h-24v38.238281c4.878906 4.402344 8 10.722657 8 17.761719 0 13.28125-10.71875 24-24 24s-24-10.71875-24-24c0-7.039062 3.121094-13.359375 8-17.761719v-38.238281h-24l-5.441406-32.398438-2.558594.398438h-200v432h320v-432zm0 0" fill="#e6e9ed"/><path d="m312 112c0 13.28125-10.71875 24-24 24s-24-10.71875-24-24c0-7.039062 3.121094-13.359375 8-17.761719v-38.238281h32v38.238281c4.878906 4.402344 8 10.722657 8 17.761719zm0 0" fill="#e6e9ed"/><g fill="#fcd770"><path d="m280 280h32v144h-32zm0 0"/><path d="m216 312h32v112h-32zm0 0"/><path d="m152 344h32v80h-32zm0 0"/><path d="m88 376h32v48h-32zm0 0"/></g><path d="m72 56h112v160h-112zm0 0" fill="#b4dd7f"/><path d="m336 8-2.558594 15.601562-5.441406 32.398438h-80l-5.441406-32.398438-2.558594-15.601562zm0 0" fill="#838f9b"/><path d="m368 16h-25.222656l2.664062-16h-114.890625l2.664063 16h-201.214844v32h-32v448h336v-32h32zm-41.449219 0-5.335937 32h-66.445313l-5.335937-32zm-27.910156 84.167969c3.457031 3.113281 5.359375 7.320312 5.359375 11.832031 0 8.824219-7.175781 16-16 16s-16-7.175781-16-16c0-4.511719 1.902344-8.71875 5.359375-11.832031l2.640625-2.382813v-33.785156h16v33.785156zm21.359375 379.832031h-304v-416h16v400h288zm32-32h-304v-416h187.886719l5.335937 32h22.777344v26.960938c-5.121094 5.832031-8 13.3125-8 21.039062 0 17.648438 14.351562 32 32 32s32-14.351562 32-32c0-7.726562-2.878906-15.207031-8-21.039062v-26.960938h22.777344l5.335937-32h11.886719zm0 0"/><path d="m320 272h-48v144h-16v-112h-48v112h-16v-80h-48v80h-16v-48h-48v48h-16v16h272v-16h-16zm-32 16h16v128h-16zm-64 32h16v96h-16zm-64 32h16v64h-16zm-64 32h16v32h-16zm0 0"/><path d="m192 48h-128v176h128zm-16 160h-96v-144h96zm0 0"/><path d="m96 80h64v16h-64zm0 0"/><path d="m96 112h64v16h-64zm0 0"/><path d="m96 144h64v16h-64zm0 0"/><path d="m96 176h64v16h-64zm0 0"/><path d="m208 160h16v16h-16zm0 0"/><path d="m240 160h96v16h-96zm0 0"/><path d="m208 192h16v16h-16zm0 0"/><path d="m240 192h96v16h-96zm0 0"/><path d="m208 224h16v16h-16zm0 0"/><path d="m240 224h96v16h-96zm0 0"/></svg>